<mxfile host="app.diagrams.net" modified="2020-04-14T02:28:01.437Z" agent="5.0 (Windows NT 10.0; Win64; x64) AppleWebKit/537.36 (KHTML, like Gecko) Chrome/81.0.4044.92 Safari/537.36" etag="Fn7m2MqoqjZexmsllByX" version="12.9.11" type="github">
  <diagram id="htmeLqwJ6XCEHbkCq5V3" name="Page-1">
    <mxGraphModel dx="1503" dy="796" grid="1" gridSize="10" guides="1" tooltips="1" connect="1" arrows="1" fold="1" page="1" pageScale="1" pageWidth="827" pageHeight="1169" math="0" shadow="0">
      <root>
        <mxCell id="0" />
        <mxCell id="1" parent="0" />
        <mxCell id="K_YEggPM4aeHbvqHOX8R-56" value="" style="shape=ext;rounded=1;html=1;whiteSpace=wrap;dashed=1;dashPattern=1 4;fillColor=#ffe6cc;strokeColor=#d79b00;" vertex="1" parent="1">
          <mxGeometry x="100" y="170" width="510" height="440" as="geometry" />
        </mxCell>
        <mxCell id="K_YEggPM4aeHbvqHOX8R-50" value="" style="html=1;" vertex="1" parent="1">
          <mxGeometry x="130" y="280" width="450" height="250" as="geometry" />
        </mxCell>
        <mxCell id="K_YEggPM4aeHbvqHOX8R-49" value="" style="shape=ext;rounded=1;html=1;whiteSpace=wrap;dashed=1;dashPattern=1 4;fillColor=#f5f5f5;strokeColor=#666666;fontColor=#333333;" vertex="1" parent="1">
          <mxGeometry x="274" y="300" width="280" height="200" as="geometry" />
        </mxCell>
        <mxCell id="K_YEggPM4aeHbvqHOX8R-62" style="edgeStyle=orthogonalEdgeStyle;rounded=0;orthogonalLoop=1;jettySize=auto;html=1;entryX=0;entryY=0.5;entryDx=0;entryDy=0;startArrow=block;startFill=0;endArrow=none;endFill=0;dashed=1;" edge="1" parent="1" source="K_YEggPM4aeHbvqHOX8R-48" target="K_YEggPM4aeHbvqHOX8R-49">
          <mxGeometry relative="1" as="geometry" />
        </mxCell>
        <mxCell id="K_YEggPM4aeHbvqHOX8R-48" value="" style="shape=ext;rounded=1;html=1;whiteSpace=wrap;dashed=1;dashPattern=1 4;fillColor=#f5f5f5;strokeColor=#666666;fontColor=#333333;" vertex="1" parent="1">
          <mxGeometry x="140" y="307" width="110" height="182.5" as="geometry" />
        </mxCell>
        <mxCell id="K_YEggPM4aeHbvqHOX8R-18" value="" style="shape=ext;rounded=1;html=1;whiteSpace=wrap;dashed=1;dashPattern=1 4;fillColor=#f5f5f5;strokeColor=#666666;fontColor=#333333;" vertex="1" parent="1">
          <mxGeometry x="150" y="650" width="370" height="80" as="geometry" />
        </mxCell>
        <mxCell id="K_YEggPM4aeHbvqHOX8R-19" style="edgeStyle=orthogonalEdgeStyle;rounded=0;orthogonalLoop=1;jettySize=auto;html=1;entryX=0.5;entryY=0;entryDx=0;entryDy=0;" edge="1" parent="1" source="K_YEggPM4aeHbvqHOX8R-4" target="K_YEggPM4aeHbvqHOX8R-18">
          <mxGeometry relative="1" as="geometry" />
        </mxCell>
        <mxCell id="K_YEggPM4aeHbvqHOX8R-58" style="edgeStyle=orthogonalEdgeStyle;rounded=0;orthogonalLoop=1;jettySize=auto;html=1;entryX=0.456;entryY=1;entryDx=0;entryDy=0;entryPerimeter=0;startArrow=classic;startFill=1;endArrow=none;endFill=0;" edge="1" parent="1" source="K_YEggPM4aeHbvqHOX8R-4" target="K_YEggPM4aeHbvqHOX8R-50">
          <mxGeometry relative="1" as="geometry" />
        </mxCell>
        <mxCell id="K_YEggPM4aeHbvqHOX8R-4" value="ETCPDiscover" style="html=1;" vertex="1" parent="1">
          <mxGeometry x="280" y="550" width="110" height="50" as="geometry" />
        </mxCell>
        <mxCell id="K_YEggPM4aeHbvqHOX8R-9" value="阿里云" style="html=1;" vertex="1" parent="1">
          <mxGeometry x="210" y="665" width="120" height="50" as="geometry" />
        </mxCell>
        <mxCell id="K_YEggPM4aeHbvqHOX8R-11" value="工单系统" style="html=1;" vertex="1" parent="1">
          <mxGeometry x="160" y="90" width="120" height="50" as="geometry" />
        </mxCell>
        <mxCell id="K_YEggPM4aeHbvqHOX8R-13" value="钉钉小程序&lt;br&gt;（运维工具）" style="html=1;" vertex="1" parent="1">
          <mxGeometry x="290" y="90" width="105" height="50" as="geometry" />
        </mxCell>
        <mxCell id="K_YEggPM4aeHbvqHOX8R-17" value="京东云" style="html=1;dashed=1;" vertex="1" parent="1">
          <mxGeometry x="340" y="665" width="120" height="50" as="geometry" />
        </mxCell>
        <mxCell id="K_YEggPM4aeHbvqHOX8R-22" value="资源同步工具" style="text;html=1;strokeColor=none;fillColor=none;align=center;verticalAlign=middle;whiteSpace=wrap;rounded=0;" vertex="1" parent="1">
          <mxGeometry x="410" y="564.5" width="80" height="20" as="geometry" />
        </mxCell>
        <mxCell id="K_YEggPM4aeHbvqHOX8R-23" value="相关应用" style="text;html=1;strokeColor=none;fillColor=none;align=center;verticalAlign=middle;whiteSpace=wrap;rounded=0;" vertex="1" parent="1">
          <mxGeometry x="60" y="105" width="100" height="20" as="geometry" />
        </mxCell>
        <mxCell id="K_YEggPM4aeHbvqHOX8R-24" value="账套宿管" style="rounded=0;whiteSpace=wrap;html=1;" vertex="1" parent="1">
          <mxGeometry x="290" y="430" width="120" height="60" as="geometry" />
        </mxCell>
        <mxCell id="K_YEggPM4aeHbvqHOX8R-25" value="网站/服务管理" style="rounded=0;whiteSpace=wrap;html=1;" vertex="1" parent="1">
          <mxGeometry x="290" y="370" width="120" height="60" as="geometry" />
        </mxCell>
        <mxCell id="K_YEggPM4aeHbvqHOX8R-26" value="任务管理" style="rounded=0;whiteSpace=wrap;html=1;" vertex="1" parent="1">
          <mxGeometry x="290" y="310" width="120" height="60" as="geometry" />
        </mxCell>
        <mxCell id="K_YEggPM4aeHbvqHOX8R-27" value="批量运维" style="rounded=0;whiteSpace=wrap;html=1;" vertex="1" parent="1">
          <mxGeometry x="410" y="370" width="120" height="60" as="geometry" />
        </mxCell>
        <mxCell id="K_YEggPM4aeHbvqHOX8R-28" value="配置管理" style="rounded=0;whiteSpace=wrap;html=1;" vertex="1" parent="1">
          <mxGeometry x="410" y="430" width="120" height="60" as="geometry" />
        </mxCell>
        <mxCell id="K_YEggPM4aeHbvqHOX8R-32" value="ERP产品" style="html=1;" vertex="1" parent="1">
          <mxGeometry x="410" y="90" width="110" height="50" as="geometry" />
        </mxCell>
        <mxCell id="K_YEggPM4aeHbvqHOX8R-34" value="资源管理" style="rounded=0;whiteSpace=wrap;html=1;" vertex="1" parent="1">
          <mxGeometry x="410" y="310" width="120" height="60" as="geometry" />
        </mxCell>
        <mxCell id="K_YEggPM4aeHbvqHOX8R-45" value="etcp后端&lt;br&gt;接口" style="html=1;" vertex="1" parent="1">
          <mxGeometry x="160" y="402.5" width="80" height="50" as="geometry" />
        </mxCell>
        <mxCell id="K_YEggPM4aeHbvqHOX8R-47" style="edgeStyle=orthogonalEdgeStyle;rounded=0;orthogonalLoop=1;jettySize=auto;html=1;entryX=0.5;entryY=0;entryDx=0;entryDy=0;" edge="1" parent="1" source="K_YEggPM4aeHbvqHOX8R-46" target="K_YEggPM4aeHbvqHOX8R-45">
          <mxGeometry relative="1" as="geometry" />
        </mxCell>
        <mxCell id="K_YEggPM4aeHbvqHOX8R-46" value="etcp前端" style="html=1;" vertex="1" parent="1">
          <mxGeometry x="160" y="322.5" width="80" height="50" as="geometry" />
        </mxCell>
        <mxCell id="K_YEggPM4aeHbvqHOX8R-65" style="edgeStyle=orthogonalEdgeStyle;rounded=0;orthogonalLoop=1;jettySize=auto;html=1;entryX=0.5;entryY=0;entryDx=0;entryDy=0;startArrow=none;startFill=0;endArrow=classic;endFill=1;" edge="1" parent="1" source="K_YEggPM4aeHbvqHOX8R-52" target="K_YEggPM4aeHbvqHOX8R-50">
          <mxGeometry relative="1" as="geometry" />
        </mxCell>
        <mxCell id="K_YEggPM4aeHbvqHOX8R-52" value="" style="shape=ext;rounded=1;html=1;whiteSpace=wrap;dashed=1;dashPattern=1 4;fillColor=#f5f5f5;strokeColor=#666666;fontColor=#333333;" vertex="1" parent="1">
          <mxGeometry x="150" y="180" width="410" height="80" as="geometry" />
        </mxCell>
        <mxCell id="K_YEggPM4aeHbvqHOX8R-53" value="etcp&lt;br&gt;第三方接口" style="html=1;" vertex="1" parent="1">
          <mxGeometry x="170" y="195" width="110" height="50" as="geometry" />
        </mxCell>
        <mxCell id="K_YEggPM4aeHbvqHOX8R-54" value="etcp&lt;br&gt;钉钉应用接口" style="html=1;" vertex="1" parent="1">
          <mxGeometry x="291" y="195" width="100" height="50" as="geometry" />
        </mxCell>
        <mxCell id="K_YEggPM4aeHbvqHOX8R-60" style="edgeStyle=orthogonalEdgeStyle;rounded=0;orthogonalLoop=1;jettySize=auto;html=1;entryX=0.5;entryY=1;entryDx=0;entryDy=0;startArrow=classic;startFill=1;endArrow=none;endFill=0;" edge="1" parent="1" source="K_YEggPM4aeHbvqHOX8R-55" target="K_YEggPM4aeHbvqHOX8R-32">
          <mxGeometry relative="1" as="geometry" />
        </mxCell>
        <mxCell id="K_YEggPM4aeHbvqHOX8R-55" value="白名单服务&lt;br&gt;(SDK)" style="html=1;" vertex="1" parent="1">
          <mxGeometry x="410" y="195" width="100" height="50" as="geometry" />
        </mxCell>
        <mxCell id="K_YEggPM4aeHbvqHOX8R-12" style="edgeStyle=orthogonalEdgeStyle;rounded=0;orthogonalLoop=1;jettySize=auto;html=1;entryX=0.436;entryY=-0.06;entryDx=0;entryDy=0;entryPerimeter=0;" edge="1" parent="1" source="K_YEggPM4aeHbvqHOX8R-11" target="K_YEggPM4aeHbvqHOX8R-53">
          <mxGeometry relative="1" as="geometry">
            <mxPoint x="225" y="200" as="targetPoint" />
          </mxGeometry>
        </mxCell>
        <mxCell id="K_YEggPM4aeHbvqHOX8R-14" style="edgeStyle=orthogonalEdgeStyle;rounded=0;orthogonalLoop=1;jettySize=auto;html=1;entryX=0.5;entryY=0;entryDx=0;entryDy=0;" edge="1" parent="1" source="K_YEggPM4aeHbvqHOX8R-13" target="K_YEggPM4aeHbvqHOX8R-54">
          <mxGeometry relative="1" as="geometry">
            <mxPoint x="310" y="200" as="targetPoint" />
          </mxGeometry>
        </mxCell>
        <mxCell id="K_YEggPM4aeHbvqHOX8R-66" value="&lt;br&gt;ETCP" style="text;html=1;strokeColor=none;fillColor=none;align=center;verticalAlign=middle;whiteSpace=wrap;rounded=0;" vertex="1" parent="1">
          <mxGeometry x="30" y="337.5" width="100" height="20" as="geometry" />
        </mxCell>
        <mxCell id="K_YEggPM4aeHbvqHOX8R-21" value="对外接口/SDK" style="text;html=1;strokeColor=none;fillColor=none;align=center;verticalAlign=middle;whiteSpace=wrap;rounded=0;" vertex="1" parent="1">
          <mxGeometry x="520" y="210" width="80" height="20" as="geometry" />
        </mxCell>
      </root>
    </mxGraphModel>
  </diagram>
</mxfile>
